<?xml version="1.0" encoding="UTF-8" standalone="no"?>
<!-- Uploaded to: SVG Repo, www.svgrepo.com, Transformed by: SVG Repo Mixer Tools -->

<svg
   width="1159.8234"
   height="196.99359"
   viewBox="-2.4 -2.4 130.48012 22.161779"
   fill="none"
   stroke="#000000"
   version="1.1"
   id="svg4"
   xmlns="http://www.w3.org/2000/svg"
   xmlns:svg="http://www.w3.org/2000/svg">
  <defs
     id="defs4" />
  <g
     id="SVGRepo_iconCarrier"
     transform="translate(38.12863,27.493119)">
    <g
       id="g5"
       transform="translate(-43.12513,-32.743154)">
      <g
         id="g6"
         transform="matrix(0.97500005,0,0,0.97500005,1.6959179,0.34826122)">
        <g
           id="g10">
          <g
             id="g4"
             transform="matrix(1.0404521,0,0,1.0404521,-0.87296947,1.3456772)">
            <g
               id="g7"
               style="stroke:#66398a;stroke-opacity:1">
              <g
                 id="g8"
                 style="stroke:#66398a;stroke-width:0.221797;stroke-dasharray:none;stroke-opacity:1">
                <path
                   style="fill:#613583;stroke:#66398a;stroke-width:0.221797;stroke-linecap:round;stroke-dasharray:none;stroke-opacity:1"
                   d="M 5.1640625,1.2851562 C 4.392981,1.2665266 3.5772228,1.4238383 2.9570313,1.9492187 2.3370778,2.4743976 2.0459176,3.2543287 1.9375,4.0175781 1.8290824,4.7808276 1.8378906,5.62379 1.8378906,6.71875 V 12 c 0,3.044133 1.2125273,5.405956 2.7636719,7.070312 1.5511446,1.664357 3.4142774,2.67794 4.8417969,3.285157 C 10.16475,22.662348 10.864067,22.908203 12,22.908203 c 1.135933,0 1.835282,-0.245852 2.556641,-0.552734 1.427517,-0.607216 3.290642,-1.620801 4.841796,-3.285157 C 20.949592,17.405957 22.162109,15.044136 22.162109,12 V 11 A 1.1617301,1.1617301 0 0 0 21,9.8378906 1.1617301,1.1617301 0 0 0 19.837891,11 v 1 c 0,2.446164 -0.90738,4.163083 -2.140625,5.486328 -1.233246,1.323245 -2.818699,2.206384 -4.050782,2.730469 -0.721441,0.306918 -0.743817,0.367187 -1.646484,0.367187 -0.902667,0 -0.924995,-0.06027 -1.646484,-0.367187 C 9.1214351,19.692713 7.5359698,18.809572 6.3027344,17.486328 5.069499,16.163084 4.1621094,14.446167 4.1621094,12 V 6.71875 c 0,-1.09496 0.00778,-1.893507 0.076172,-2.375 0.068395,-0.481493 0.1334064,-0.5490957 0.220703,-0.6230469 0.087058,-0.07375 0.1636271,-0.1250416 0.6503906,-0.1132812 0.4867635,0.01176 1.2763876,0.1342782 2.3574219,0.3144531 L 8.5214844,4.0976562 C 10.161766,4.3710365 11.044492,4.5234375 12,4.5234375 c 0.955508,0 1.838215,-0.1524011 3.478516,-0.4257813 L 16.533203,3.921875 c 1.081051,-0.1801751 1.87067,-0.3026928 2.357422,-0.3144531 0.486752,-0.01176 0.563362,0.039552 0.650391,0.1132812 0.08732,0.073963 0.152304,0.1415632 0.220703,0.6230469 0.0684,0.4814837 0.07617,1.28004 0.07617,2.375 V 7 A 1.1617301,1.1617301 0 0 0 21,8.1621094 1.1617301,1.1617301 0 0 0 22.162109,7 V 6.71875 c 0,-1.09496 0.0088,-1.9379131 -0.09961,-2.7011719 C 21.954073,3.2543193 21.662952,2.4743857 21.042969,1.9492187 20.422797,1.4238182 19.607011,1.2665265 18.835937,1.2851562 18.064864,1.303786 17.233393,1.4506845 16.152344,1.6308594 L 15.097656,1.8066406 C 13.457357,2.0800205 12.699692,2.2011719 12,2.2011719 c -0.699692,0 -1.457378,-0.1211515 -3.0976562,-0.3945313 L 7.8476562,1.6308594 C 6.7666205,1.4506843 5.935144,1.3037859 5.1640625,1.2851562 Z"
                   id="path1" />
                <path
                   style="fill:#613583;stroke:#66398a;stroke-width:0.221797;stroke-linecap:round;stroke-dasharray:none;stroke-opacity:1"
                   d="m 8.5,6.8378906 c -1.2734564,0 -2.4736045,0.5109629 -3.0390625,1.6425782 A 1.1617301,1.1617301 0 0 0 5.9804687,10.039063 1.1617301,1.1617301 0 0 0 7.5390625,9.5195313 C 7.5558445,9.4859465 7.9267564,9.1621094 8.5,9.1621094 c 0.5732436,0 0.9441843,0.3238923 0.9609375,0.3574219 A 1.1617301,1.1617301 0 0 0 11.019531,10.039063 1.1617301,1.1617301 0 0 0 11.539063,8.4804688 C 10.973616,7.3487983 9.7734564,6.8378906 8.5,6.8378906 Z"
                   id="path2" />
                <path
                   style="fill:#613583;stroke:#66398a;stroke-width:0.221797;stroke-linecap:round;stroke-dasharray:none;stroke-opacity:1"
                   d="m 15.5,6.8378906 c -1.273487,0 -2.47364,0.5109552 -3.039062,1.6425782 a 1.1617301,1.1617301 0 0 0 0.519531,1.5585942 1.1617301,1.1617301 0 0 0 1.558594,-0.5195317 C 14.55584,9.4859542 14.926687,9.1621094 15.5,9.1621094 c 0.573313,0 0.94416,0.3238448 0.960937,0.3574219 a 1.1617301,1.1617301 0 0 0 1.558594,0.5195317 1.1617301,1.1617301 0 0 0 0.519531,-1.5585942 C 17.97364,7.3488458 16.773487,6.8378906 15.5,6.8378906 Z"
                   id="path3" />
                <path
                   style="fill:#613583;stroke:#66398a;stroke-width:0.221797;stroke-linecap:round;stroke-dasharray:none;stroke-opacity:1"
                   d="m 9.3007813,13.158203 a 1.1617301,1.1617301 0 0 0 -1.6425782,0.04102 1.1617301,1.1617301 0 0 0 0.041016,1.642578 c 0,0 0.4546722,0.410836 1.1640626,0.722656 0.7093903,0.31182 1.7536593,0.597656 3.1367183,0.597656 1.383059,0 2.427328,-0.285836 3.136719,-0.597656 0.70939,-0.31182 1.164062,-0.722656 1.164062,-0.722656 a 1.1617301,1.1617301 0 0 0 0.04102,-1.642578 1.1617301,1.1617301 0 0 0 -1.642578,-0.04102 c 0,0 -0.06994,0.08916 -0.498047,0.277344 -0.42811,0.18818 -1.134231,0.402344 -2.201172,0.402344 -1.066941,0 -1.773062,-0.214164 -2.2011715,-0.402344 -0.4281096,-0.18818 -0.4980469,-0.277344 -0.4980468,-0.277344 z"
                   id="path4" />
              </g>
            </g>
          </g>
          <path
             style="-inkscape-font-specification:'JetBrains Mono Bold';fill:#613583;stroke:#66398a;stroke-width:0.230769;stroke-dasharray:none;stroke-opacity:1"
             d="M 27.8424,22.13998 V 5.4929873 h 3.489027 L 35.960659,18.947406 Q 35.892249,18.217675 35.823835,17.237099 35.755425,16.233718 35.68701,15.207534 35.6414,14.181349 35.6414,13.383206 V 5.4929873 h 2.599667 V 22.13998 H 34.752042 L 30.168418,8.6855613 q 0.04561,0.6613189 0.11402,1.5962867 0.06841,0.934968 0.114021,1.915545 0.04561,0.980576 0.04561,1.801524 v 8.141063 z m 18.904607,0.228041 q -1.596287,0 -2.7821,-0.61571 Q 42.779093,21.1366 42.117775,20.042003 41.47926,18.924602 41.47926,17.442336 V 14.29537 q 0,-1.482267 0.638515,-2.576863 0.661318,-1.117401 1.847132,-1.733112 1.185813,-0.6157107 2.7821,-0.6157107 1.573483,0 2.736492,0.6157107 1.185813,0.615711 1.824328,1.733112 0.661319,1.094596 0.661319,2.576863 v 2.257606 h -7.73059 v 0.88936 q 0,2.668079 2.531255,2.668079 1.961153,0 2.303214,-1.299833 h 2.804904 q -0.319257,1.619091 -1.733111,2.599667 -1.39105,0.957772 -3.397811,0.957772 z M 44.238556,14.29537 v 0.478886 l 4.971294,-0.0228 V 14.27257 q 0,-1.299834 -0.615711,-1.983957 -0.615711,-0.706927 -1.847132,-0.706927 -1.254226,0 -1.89274,0.706927 -0.615711,0.706927 -0.615711,2.006761 z m 16.168115,8.049847 q -2.417234,0 -3.831089,-1.322638 -1.413854,-1.345441 -1.413854,-3.603047 v -3.101358 q 0,-2.257606 1.413854,-3.580244 1.413855,-1.3454416 3.831089,-1.3454416 2.417235,0 3.831089,1.3454416 1.413854,1.322638 1.413854,3.55744 v 3.124162 q 0,2.257606 -1.413854,3.603047 -1.413854,1.322638 -3.831089,1.322638 z m 0,-2.485647 q 1.140205,0 1.755916,-0.61571 0.638515,-0.638515 0.638515,-1.824328 v -3.101358 q 0,-1.185813 -0.638515,-1.801524 -0.615711,-0.638515 -1.755916,-0.638515 -1.140205,0 -1.77872,0.638515 -0.61571,0.615711 -0.61571,1.801524 v 3.101358 q 0,1.185813 0.61571,1.824328 0.638515,0.61571 1.77872,0.61571 z m 8.665567,2.28041 V 5.4929873 h 10.353061 v 2.6452756 h -7.548157 v 4.4467991 h 6.95525 v 2.645276 H 71.92275 v 6.909642 z m 17.30832,0.228041 q -1.938349,0 -3.05575,-1.00338 -1.1174,-1.026185 -1.1174,-2.7821 0,-1.847132 1.277029,-2.850513 1.27703,-1.026184 3.55744,-1.026184 h 3.010141 v -1.048989 q 0,-0.912164 -0.592907,-1.413854 -0.592906,-0.50169 -1.664699,-0.50169 -0.980576,0 -1.619091,0.410474 -0.615711,0.410473 -0.684123,1.094596 H 82.77751 q 0.09122,-1.755915 1.482267,-2.804904 1.413854,-1.0717927 3.625851,-1.0717927 2.326019,0 3.671461,1.1402047 1.345441,1.140205 1.345441,3.124162 v 8.505929 h -2.759296 v -2.120781 h -0.04561 q -0.250845,1.094597 -1.231421,1.733112 -0.980577,0.61571 -2.485647,0.61571 z m 0.934968,-2.120781 q 1.208617,0 1.961153,-0.592907 0.775339,-0.61571 0.775339,-1.619091 v -1.50507 h -2.941729 q -0.957772,0 -1.505071,0.50169 -0.547298,0.478886 -0.547298,1.322638 0,0.88936 0.592907,1.39105 0.61571,0.50169 1.664699,0.50169 z m 9.121645,1.89274 V 5.4929873 h 2.850512 v 9.0304237 h 2.006757 l 3.05575,-4.9256857 h 3.16977 l -3.78548,6.0658907 3.8539,6.476364 h -3.23819 l -3.05575,-5.199334 h -2.006757 v 5.199334 z m 18.722179,0.228041 q -1.59629,0 -2.7821,-0.61571 -1.18581,-0.615711 -1.84713,-1.710308 -0.63852,-1.117401 -0.63852,-2.599667 V 14.29537 q 0,-1.482267 0.63852,-2.576863 0.66132,-1.117401 1.84713,-1.733112 1.18581,-0.6157107 2.7821,-0.6157107 1.57348,0 2.73649,0.6157107 1.18581,0.615711 1.82433,1.733112 0.66132,1.094596 0.66132,2.576863 v 2.257606 h -7.73059 v 0.88936 q 0,2.668079 2.53125,2.668079 1.96116,0 2.30322,-1.299833 h 2.8049 q -0.31926,1.619091 -1.73311,2.599667 -1.39105,0.957772 -3.39781,0.957772 z M 112.6509,14.29537 v 0.478886 l 4.97129,-0.0228 V 14.27257 q 0,-1.299834 -0.61571,-1.983957 -0.61571,-0.706927 -1.84713,-0.706927 -1.25423,0 -1.89274,0.706927 -0.61571,0.706927 -0.61571,2.006761 z m 11.44767,7.84461 V 9.5977253 h 2.7821 v 2.3944307 h 0.0684 q 0.18243,-1.231422 1.0946,-1.915545 0.91216,-0.7069267 2.32602,-0.7069267 1.93834,0 3.10135,1.2770297 1.16301,1.254225 1.16301,3.443419 v 1.026185 h -2.98733 V 14.29537 q 0,-1.163009 -0.61572,-1.801524 -0.5929,-0.661319 -1.73311,-0.661319 -2.34882,0 -2.34882,2.622472 v 7.684981 z"
             id="text4"
             aria-label="NeoFaker" />
        </g>
      </g>
    </g>
  </g>
</svg>
